<svg xmlns="http://www.w3.org/2000/svg" xmlns:xlink="http://www.w3.org/1999/xlink" version="1.1" x="0px" y="0px" viewBox="0 0 612 990" enable-background="new 0 0 612 792" xml:space="preserve"><g><path d="M363.572,214.802c0,0-29.628-11.651-107.328-12.268v-0.521c-79.886,0-110.147,12.296-110.147,12.296   c77.466,361.086,38.733,488.613,38.733,488.613h0.97c-0.336,0.416-0.513,0.84-0.513,1.27c0,5.729,30.707,10.375,68.583,10.375   c37.878,0,68.584-4.646,68.584-10.375c0-0.261-0.065-0.521-0.191-0.777h1.299C323.563,703.414,283.552,575.888,363.572,214.802z    M340.894,279.18c-6.426-0.683-13.225-1.283-20.318-1.797c6.438-18.175,15.462-38.044,28.003-56.299   c2.883,0.827,4.235,1.357,4.235,1.357C348.451,242.125,344.491,261.027,340.894,279.18z M176.18,279.714   c-2.01,0.231-3.997,0.468-5.923,0.716c-3.567-18.667-7.51-38.135-11.864-58.429c0,0,27.052-10.993,98.47-10.993v0.465   c23.206,0.185,41.609,1.471,55.837,3.101c-5.245,11.514-15.977,34.369-26.521,61.107c-8.207-0.231-16.646-0.355-25.269-0.355   c-25.979,0-50.346,1.098-71.41,3.013c24.341,143.592,12.918,181.102,12.918,181.102C199.372,397.07,186.016,325.553,176.18,279.714   z M307.309,695.53c0,4.146-23.654,7.509-52.832,7.509c-29.177,0-52.831-3.362-52.831-7.509c0-0.313,0.136-0.619,0.395-0.918h-0.746   c0,0,2.436-7.542,4.524-24.406c6.924,3.001,26.773,5.167,50.195,5.167c20.914,0,38.986-1.728,47.547-4.232   c2.14,16.46,4.599,23.828,4.599,23.828h-1C307.258,695.154,307.309,695.341,307.309,695.53z"/><path d="M454.826,197.069c-13.32-8.197-5.123-5.124-5.123-5.124l8.197-0.511c4.098-1.538-2.562-4.099-2.562-4.099l-4.612-5.124   c7.076-2.082,1.644-2.133-0.646-2.079c-1.332-0.777-5.207-2.717-14.724-7.143c-22.028-10.246-34.324-3.586-34.324-3.586   l-0.592,3.546c-1.731,0.655-3.683,1.43-5.88,2.342c3.899,2.997,7.585,6.284,11.003,9.854c7.429,7.759,12.956,16.186,16.623,24.852   c1.842,1.626,3.949,2.442,3.949,2.442s-0.512-14.857,4.099-7.685c4.611,7.172,2.05-3.074,7.172,2.05   c5.124,5.123,11.784,0.511,11.784,0.511l9.733,0.513l-4.098-6.66C454.826,201.168,468.146,205.267,454.826,197.069z"/><path d="M539.478,64.805c7.209-7.431-14.006-6.738-14.006-6.738c-12.886,5.511-2.418-5.006-2.418-5.006   c9.246-17.367-18.053,0.475-18.053,0.475c-27.494,23.579-10.952,0.977-10.952,0.977c26.12-23.594,3.434-20.049,3.434-20.049   c-0.082-4.726-12.881,2.98-9.11-3.223c3.77-6.204-8.015-2.199-8.015-2.199c1.847-6.731-8.572,2.353-9.441,1.752   c-20.335,17.582-7.28-2.359-7.28-2.359c6.568-7.606-4.292-6.968-4.292-6.968c-3.755-1.392-8.116,3.201-8.116,3.201   c-8.154,20.924-6.841,6.085-4.157-6.206c2.684-12.292-14.978-1.938-14.978-1.938c-4.064-6.544-7.307,10.299-7.307,10.299   c-2.636-2.249-4.78-2.23-6.526-0.768c2.053-7.342,2.756-14.38,2.756-14.38L409.4,22.6c-9.996,3.772-9.116,20.66-12.234,21.976   c-6.878,2.456-11.711,35.146-11.711,35.146c0.575,2.051,1.047,4.43,1.435,7.008c-1.805,0.833-3.418,2.176-3.58,4.343   c-0.381,5.12-5.085-24.309-5.085-24.309l-10.053,9.132c0,0,4.733-14.739,2.677-24.801l-4.725,3.698l0.445-15.316   c0,0-3.521,0.768-5.167,3.646c0.944-5.799,1.927-17.322-1.609-21.052c0,0-15.217,17.103-15.33,26.453c0,0-0.483-7.613-4.611-5.653   c0,0-5.164,7.974-4.956,22.399c0,0-9.985-12.106-12.539-7.697c0,0-5.777,31.792,0.3,38.201c0,0,15.398,30.447-11.739,16.033   c0,0-10.152-3.602,5.04,12.419c0,0-8.909,4.813-2.286,8.64l-2.778,12.067c0,0,2.44,4.94,5.862,3.025l-3.307,6.115   c22.622-3.271,47.095,1.191,67.822,12.562c0.787-2.158,1.67-4.415,2.645-6.704l0.18,0.119c0.057-0.345,0.132-0.689,0.217-1.033   c0.956-2.191,1.998-4.402,3.126-6.573c4.208-6.179,10.716-10.974,10.716-10.974c12.489-12.858,53.871,4.648,53.919,3.214   c35.526,13.729,21.124-0.356,21.124-0.356c-13.921-25.895-1.067-16.215-1.067-16.215c21.641,15.346,16.398,3.051,16.398,3.051   c-6.77-5.476,1.933-4.536,1.933-4.536c5.617,8.417,10.176-1.913,10.176-1.913c20.748,3.522,11.663-12.361,11.663-12.361   c-30.162-14.428,0.652-4.887,0.652-4.887c8.192,4.056,10.045-5.206,10.188-6.977c-13.637-8.084,2.529-5.458,2.529-5.458   c14.396-4.734,2.45-10.184,2.45-10.184C576.752,74.671,539.478,64.805,539.478,64.805z M410.694,60.591   c-11.418,47.893-5.606-13.48,1.374-21.336c0.374-0.422,0.733-0.884,1.079-1.369C410.964,48.069,410.694,60.591,410.694,60.591z"/><path d="M283.87,167.061l2.156,2.264c34.746-11.788,78.369-1.785,105.103,26.262s27.965,65.102,5.531,89.803l1.033,1.084   c32.986-23.756,35.602-67.378,5.158-99.315C372.41,155.22,320.064,146.671,283.87,167.061z"/><path d="M388.219,197.444c-25.818-27.087-67.393-37.348-101.507-27.401l34.142,31.508l47.262,10.375l-8.453,39.577l36.313,33.168   C416.074,260.021,414.039,224.531,388.219,197.444z"/></g><text x="0" y="807" fill="#000000" font-size="5px" font-weight="bold" font-family="'Helvetica Neue', Helvetica, Arial-Unicode, Arial, Sans-serif">Created by Colleen Wilson</text><text x="0" y="812" fill="#000000" font-size="5px" font-weight="bold" font-family="'Helvetica Neue', Helvetica, Arial-Unicode, Arial, Sans-serif">from the Noun Project</text></svg>